v 0.35 0 0.35
v 0.35 1 0.35
v 0.3 0 0.4
v 0.3 1 0.4
v 0.3 0 29.35
v 0.3 1 29.35
v 0.35 0 29.4
v 0.35 1 29.4
v 0.35 0 29.45
v 0.35 1 29.45
v 4.4 0 29.45
v 4.4 1 29.45
v 4.45 0 29.5
v 4.45 1 29.5
v 4.7 0 29.5
v 4.7 1 29.5
v 4.75 0 29.45
v 4.75 1 29.45
v 39.55 0 29.45
v 39.55 1 29.45
v 39.6 0 29.4
v 39.6 1 29.4
v 39.55 0 29.35
v 39.55 1 29.35
v 39.6 0 29.3
v 39.6 1 29.3
v 39.6 0 0.35
v 39.6 1 0.35
v 39.55 0 0.4
v 39.55 1 0.4
v 39.5 0 0.4
v 39.5 1 0.4
v 39.5 0 29.25
v 39.5 1 29.25
v 39.4 0 29.35
v 39.4 1 29.35
v 0.45 0 29.35
v 0.45 1 29.35
v 0.4 0 29.3
v 0.4 1 29.3
v 0.4 0 16.85
v 0.4 1 16.85
v 0.45 0 16.8
v 0.45 1 16.8
v 0.4 0 16.75
v 0.4 1 16.75
v 0.4 0 16.5
v 0.4 1 16.5
v 0.45 0 16.45
v 0.45 1 16.45
v 0.4 0 16.4
v 0.4 1 16.4
v 0.4 0 0.5
v 0.4 1 0.5
v 0.45 0 0.45
v 0.45 1 0.45
v 0.4 0 0.4
v 0.4 1 0.4
v 0.4 0 0.35
v 0.4 1 0.35
vn 0.554221 0.04156657 0.8313311
vn 0.3158727 -0.0473809 0.9476178
vn 0.9971909 0.07489685 0.0008603887
vn 0.9889556 -0.1481731 0.003404321
vn 0.998755 0.04976583 -0.003438054
vn 0.9996878 -0.02497062 -0.0008625431
vn 0.01482045 0.999878 -0.004940099
vn 0.01481972 -0.9998413 -0.009879836
vn 0.006170935 0.02499229 -0.9996685
vn 0.02465362 -0.04992358 -0.9984488
vn 0.02081629 0.5032511 -0.8638894
vn 0.005881468 -0.2843788 -0.958694
vn 0.09040106 0.05424063 -0.9944272
vn 0.2737887 -0.08213661 -0.9582762
vn -0.2745558 0.03431948 -0.9609585
vn -0.09051125 -0.02262781 -0.9956384
vn -0.000716936 0.05083172 -0.9987069
vn -0.002850606 -0.1010559 -0.9948767
vn -0.002851203 0.09936253 -0.9950472
vn -0.0007169943 -0.04997355 -0.9987503
vn -0.9482033 0.03160891 0.3160878
vn -0.9482045 -0.03160854 -0.3160842
vn -0.02631655 0.9996151 -0.008772853
vn -0.02631655 -0.9996151 0.008772853
vn -0.9971843 0.07498507 -0.0008604359
vn -0.9889298 -0.1483447 -0.003404441
vn -0.9987375 0.05011302 0.003462039
vn -0.9996867 -0.02501529 0.0008640861
vn 0.008650827 0.9996258 0.02595274
vn 0.01729971 -0.9995136 0.02595048
vn 0.9996873 0.0249918 0.0008662669
vn 0.9987463 -0.04993656 0.003461806
vn 0.9889756 0.1479223 0.006808678
vn 0.9971849 -0.07496216 0.001725207
vn 0.001281643 0.02534402 0.999678
vn 0.005102006 -0.05044513 0.9987138
vn -0.002557569 0.05000047 0.9987459
vn -0.0006412253 -0.02507191 0.9996855
vn -0.9996793 0.02524241 0.002003366
vn -0.9987108 -0.05013449 0.007957857
vn -0.9987008 0.05033294 -0.007957778
vn -0.9996768 -0.02534251 -0.002003361
vn -0.9482102 0.03160682 0.316067
vn -0.948209 -0.03160718 -0.3160706
vn -0.9950677 0.04070735 0.09046054
vn -0.9596928 -0.06169431 0.2741962
vn -0.9596919 0.06169493 -0.2741989
vn -0.9950677 -0.04070749 -0.09046084
vn -0.9482102 0.03160682 0.316067
vn -0.948209 -0.03160718 -0.3160706
vn -0.9996796 0.02526663 0.001569356
vn -0.9987173 -0.05024797 0.006241984
vn -0.9987173 0.05024797 -0.006241985
vn -0.9996795 -0.02526663 -0.001569356
vn -0.9482093 0.03160698 0.3160698
vn -0.9482092 -0.03160698 -0.3160699
vn -0.05133856 0.9985347 0.01711285
vn -0.05131603 -0.9980963 0.03421069
vn -0.4471018 0.0223551 0.8942037
vn -0.8942037 -0.0223551 0.4471018
f 1//1 2//2 4//4
f 1//1 4//4 3//3
f 3//3 4//4 6//6
f 3//3 6//6 5//5
f 5//5 6//6 8//8
f 5//5 8//8 7//7
f 7//7 8//8 10//10
f 7//7 10//10 9//9
f 9//9 10//10 12//12
f 9//9 12//12 11//11
f 11//11 12//12 14//14
f 11//11 14//14 13//13
f 13//13 14//14 16//16
f 13//13 16//16 15//15
f 15//15 16//16 18//18
f 15//15 18//18 17//17
f 17//17 18//18 20//20
f 17//17 20//20 19//19
f 19//19 20//20 22//22
f 19//19 22//22 21//21
f 21//21 22//22 24//24
f 21//21 24//24 23//23
f 23//23 24//24 26//26
f 23//23 26//26 25//25
f 25//25 26//26 28//28
f 25//25 28//28 27//27
f 27//27 28//28 30//30
f 27//27 30//30 29//29
f 29//29 30//30 32//32
f 29//29 32//32 31//31
f 31//31 32//32 34//34
f 31//31 34//34 33//33
f 33//33 34//34 36//36
f 33//33 36//36 35//35
f 35//35 36//36 38//38
f 35//35 38//38 37//37
f 37//37 38//38 40//40
f 37//37 40//40 39//39
f 39//39 40//40 42//42
f 39//39 42//42 41//41
f 41//41 42//42 44//44
f 41//41 44//44 43//43
f 43//43 44//44 46//46
f 43//43 46//46 45//45
f 45//45 46//46 48//48
f 45//45 48//48 47//47
f 47//47 48//48 50//50
f 47//47 50//50 49//49
f 49//49 50//50 52//52
f 49//49 52//52 51//51
f 51//51 52//52 54//54
f 51//51 54//54 53//53
f 53//53 54//54 56//56
f 53//53 56//56 55//55
f 55//55 56//56 58//58
f 55//55 58//58 57//57
f 57//57 58//58 60//60
f 57//57 60//60 59//59
f 59//59 60//60 2//2
f 59//59 2//2 1//1
f 1//1 57//57 59//59
f 57//57 53//53 55//55
f 51//51 47//47 49//49
f 45//45 41//41 43//43
f 33//33 29//29 31//31
f 29//29 25//25 27//27
f 23//23 19//19 21//21
f 17//17 13//13 15//15
f 11//11 7//7 9//9
f 7//7 3//3 5//5
f 3//3 57//57 1//1
f 33//33 25//25 29//29
f 23//23 17//17 19//19
f 17//17 11//11 13//13
f 7//7 57//57 3//3
f 35//35 25//25 33//33
f 23//23 11//11 17//17
f 7//7 53//53 57//57
f 35//35 23//23 25//25
f 23//23 7//7 11//11
f 7//7 51//51 53//53
f 35//35 7//7 23//23
f 7//7 47//47 51//51
f 37//37 7//7 35//35
f 7//7 45//45 47//47
f 39//39 7//7 37//37
f 7//7 41//41 45//45
f 41//41 7//7 39//39
f 2//2 60//60 58//58
f 58//58 56//56 54//54
f 52//52 50//50 48//48
f 46//46 44//44 42//42
f 34//34 32//32 30//30
f 30//30 28//28 26//26
f 24//24 22//22 20//20
f 18//18 16//16 14//14
f 12//12 10//10 8//8
f 8//8 6//6 4//4
f 4//4 2//2 58//58
f 34//34 30//30 26//26
f 24//24 20//20 18//18
f 18//18 14//14 12//12
f 8//8 4//4 58//58
f 36//36 34//34 26//26
f 24//24 18//18 12//12
f 8//8 58//58 54//54
f 36//36 26//26 24//24
f 24//24 12//12 8//8
f 8//8 54//54 52//52
f 36//36 24//24 8//8
f 8//8 52//52 48//48
f 38//38 36//36 8//8
f 8//8 48//48 46//46
f 40//40 38//38 8//8
f 8//8 46//46 42//42
f 42//42 40//40 8//8
