v 1.95 0 1.4
v 1.95 1 1.4
v 1.95 0 4.8
v 1.95 1 4.8
v 5.6 0 4.8
v 5.6 1 4.8
v 5.6 0 1.4
v 5.6 1 1.4
v 5.15 0 1.4
v 5.15 1 1.4
v 5.1 0 1.45
v 5.1 1 1.45
v 2.4 0 1.45
v 2.4 1 1.45
v 2.35 0 1.4
v 2.35 1 1.4
vn 0.9733922 0.2218762 0.05725837
vn 0.8897445 -0.4056188 0.2093517
vn 0.1318243 0.9500073 -0.2830345
vn 0.2647027 -0.9538054 -0.142083
vn -0.4653055 0.8491825 -0.2497596
vn -0.2298252 -0.8388619 -0.4934482
vn -0.236332 0.9696565 0.06255846
vn -0.4379856 -0.8985146 0.02898433
vn 0.1787409 0.04021669 0.9830739
vn 0.05254422 -0.02364489 0.9983386
vn 0.004199652 0.8890651 0.4577614
vn 0.009132824 -0.966708 0.2557187
vn -0.009124768 0.9667678 0.2554931
vn -0.004196518 -0.889241 0.4574198
vn -0.0587059 0.02348237 0.9979991
vn -0.1959657 -0.03919315 0.9798272
f 1//1 2//2 4//4
f 1//1 4//4 3//3
f 3//3 4//4 6//6
f 3//3 6//6 5//5
f 5//5 6//6 8//8
f 5//5 8//8 7//7
f 7//7 8//8 10//10
f 7//7 10//10 9//9
f 9//9 10//10 12//12
f 9//9 12//12 11//11
f 11//11 12//12 14//14
f 11//11 14//14 13//13
f 13//13 14//14 16//16
f 13//13 16//16 15//15
f 15//15 16//16 2//2
f 15//15 2//2 1//1
f 1//1 13//13 15//15
f 11//11 7//7 9//9
f 7//7 3//3 5//5
f 3//3 13//13 1//1
f 11//11 3//3 7//7
f 3//3 11//11 13//13
f 2//2 16//16 14//14
f 12//12 10//10 8//8
f 8//8 6//6 4//4
f 4//4 2//2 14//14
f 12//12 8//8 4//4
f 4//4 14//14 12//12
