v 0.42 0 0.32
v 0.42 2 0.32
v 0.42 0 0.92
v 0.42 2 0.92
v 0.43 0 0.92
v 0.43 2 0.92
v 0.44 0 0.93
v 0.44 2 0.93
v 0.45 0 0.92
v 0.45 2 0.92
v 0.47 0 0.92
v 0.47 2 0.92
v 0.48 0 0.93
v 0.48 2 0.93
v 0.49 0 0.92
v 0.49 2 0.92
v 1.04 0 0.92
v 1.04 2 0.92
v 1.05 0 0.93
v 1.05 2 0.93
v 1.06 0 0.92
v 1.06 2 0.92
v 1.07 0 0.93
v 1.07 2 0.93
v 1.08 0 0.92
v 1.08 2 0.92
v 1.09 0 0.92
v 1.09 2 0.92
v 1.09 0 0.32
v 1.09 2 0.32
vn 0.8731257 0 0.4874952
vn 0.4086647 0 0.9126846
vn 0.9994449 0 -0.0333148
vn 0.9999653 0 -0.008333036
vn 0.5547017 0 -0.8320493
vn 0.3162292 0 -0.9486828
vn -0.3162292 0 -0.9486828
vn 0.3162289 0 -0.9486829
vn -0.196117 0 -0.9805804
vn -0.4472154 0 -0.8944262
vn 0.4472154 0 -0.8944262
vn 0.196117 0 -0.9805804
vn -0.3162294 0 -0.9486827
vn 0.3162294 0 -0.9486827
vn -0.00900869 0 -0.9999594
vn -0.03506632 0 -0.999385
vn 0.03506632 0 -0.999385
vn 0.00900869 0 -0.9999594
vn -0.3162294 0 -0.9486827
vn 0.3162294 0 -0.9486827
vn 0.3162294 0 -0.9486827
vn -0.3162294 0 -0.9486827
vn -0.3162294 0 -0.9486827
vn 0.3162294 0 -0.9486827
vn -0.3162272 0 -0.9486835
vn -0.554701 0 -0.8320498
vn -0.9999653 0 -0.008333135
vn -0.9994449 0 -0.0333152
vn -0.4086647 0 0.9126846
vn -0.8731257 0 0.4874952
f 1//1 2//2 4//4
f 1//1 4//4 3//3
f 3//3 4//4 6//6
f 3//3 6//6 5//5
f 5//5 6//6 8//8
f 5//5 8//8 7//7
f 7//7 8//8 10//10
f 7//7 10//10 9//9
f 9//9 10//10 12//12
f 9//9 12//12 11//11
f 11//11 12//12 14//14
f 11//11 14//14 13//13
f 13//13 14//14 16//16
f 13//13 16//16 15//15
f 15//15 16//16 18//18
f 15//15 18//18 17//17
f 17//17 18//18 20//20
f 17//17 20//20 19//19
f 19//19 20//20 22//22
f 19//19 22//22 21//21
f 21//21 22//22 24//24
f 21//21 24//24 23//23
f 23//23 24//24 26//26
f 23//23 26//26 25//25
f 25//25 26//26 28//28
f 25//25 28//28 27//27
f 27//27 28//28 30//30
f 27//27 30//30 29//29
f 29//29 30//30 2//2
f 29//29 2//2 1//1
